<?xml version="1.0" encoding="utf-8"?>
<!-- Generator: Adobe Illustrator 17.0.0, SVG Export Plug-In . SVG Version: 6.00 Build 0)  -->
<!DOCTYPE svg PUBLIC "-//W3C//DTD SVG 1.1//EN" "http://www.w3.org/Graphics/SVG/1.1/DTD/svg11.dtd">
<svg version="1.1" id="Layer_1" xmlns="http://www.w3.org/2000/svg" xmlns:xlink="http://www.w3.org/1999/xlink" x="0px" y="0px"
	 width="402.343px" height="135.38px" viewBox="0 0 402.343 135.38" enable-background="new 0 0 402.343 135.38"
	 xml:space="preserve">
<g id="XMLID_2_">
	<g>
		<g id="XMLID_184_">
			<polygon fill="#448AFF" points="40.314,90.738 40.314,135.38 10.712,113.608 10.712,135.38 0,135.38 0,90.738 29.599,113.541 
				29.599,90.738 			"/>
		</g>
		<g id="XMLID_181_">
			<g>
				<path fill="#448AFF" d="M71.07,90.862c-12.195,0-22.081,9.886-22.081,22.079c0,12.193,9.886,22.081,22.081,22.081
					c12.193,0,22.079-9.887,22.079-22.081C93.149,100.748,83.263,90.862,71.07,90.862z M80.166,122.036
					c-2.439,2.374-5.67,3.757-9.096,3.757c-3.428,0-6.658-1.384-9.095-3.757c-2.44-2.439-3.757-5.667-3.757-9.095
					c0-3.427,1.317-6.657,3.757-9.096c2.437-2.438,5.668-3.757,9.095-3.757c3.426,0,6.656,1.319,9.096,3.757
					c2.438,2.439,3.755,5.669,3.755,9.096C83.921,116.369,82.604,119.597,80.166,122.036z"/>
			</g>
		</g>
		<g id="XMLID_180_">
			<polygon fill="#448AFF" points="149.615,90.738 149.615,135.38 138.903,135.38 138.903,110.38 125.648,118.828 112.805,110.449 
				112.805,135.38 102.09,135.38 102.09,90.738 125.786,106.055 			"/>
		</g>
		<g id="XMLID_177_">
			<g>
				<path fill="#448AFF" d="M183.601,90.738l-24.036,44.642h12.361l3.228-6.251h16.829l3.225,6.251h12.365L183.601,90.738z
					 M179.481,120.75l4.12-7.83l4.052,7.83H179.481z"/>
			</g>
		</g>
		<g id="XMLID_176_">
			<polygon fill="#448AFF" points="233.588,118.76 228.713,123.704 228.713,135.38 217.999,135.38 217.999,90.738 228.713,90.738 
				228.713,108.525 246.5,90.738 261.679,90.738 241.214,111.136 264.425,135.38 249.248,135.38 			"/>
		</g>
		<g id="XMLID_175_">
			<polygon fill="#448AFF" points="306.437,125.764 306.437,135.38 284.94,135.38 284.873,135.38 274.226,135.38 274.226,90.738 
				284.94,90.738 284.94,125.764 			"/>
		</g>
		<g id="XMLID_174_">
			<polygon fill="#448AFF" points="329.147,125.764 349.613,125.764 349.613,135.38 318.432,135.38 318.432,90.738 349.613,90.738 
				349.613,100.355 329.147,100.355 329.147,108.251 346.521,108.251 346.521,117.866 329.147,117.866 			"/>
		</g>
		<g id="XMLID_171_">
			<g>
				<path fill="#448AFF" d="M402.343,105.984c0-6.867-4.945-15.246-15.934-15.246c-6.386,0-9.34,0-10.644,0h-10.716v44.642h10.716
					v-14.217c1.508,0,3.227,0,5.08,0l9.341,14.217h12.02l-9.615-15.247C399.663,117.66,402.343,110.998,402.343,105.984z
					 M389.842,110.929c-0.892,0.413-2.129,0.619-3.501,0.619h-10.576v-11.193h10.644c2.267,0,3.846,0.549,4.876,1.783
					c1.1,1.167,1.443,2.747,1.443,3.846c0,1.03-0.342,2.611-1.305,3.777C391.012,110.243,390.46,110.586,389.842,110.929z"/>
			</g>
		</g>
	</g>
</g>
<g id="XMLID_3_">
	<path id="XMLID_527_" fill="#448AFF" d="M228.681-0.028l-28.549,0.039l-12.926,15.974l41.466,51.133L228.681-0.028z"/>
	<path id="XMLID_491_" opacity="0.1" d="M190.568,11.83l-3.327,4.112l41.424,51.176L190.568,11.83z"/>
	<path id="XMLID_471_" fill="#FF207B" d="M174.341,0.011l-27.715-0.039V67.12h82.016L174.341,0.011z"/>
	<rect id="XMLID_470_" x="205.175" y="6.006" fill="#FFFFFF" width="5.414" height="5.943"/>
	<rect id="XMLID_469_" x="205.175" y="17.524" fill="#FFFFFF" width="5.414" height="5.944"/>
	<rect id="XMLID_448_" x="217.574" y="6.006" fill="#FFFFFF" width="5.414" height="5.943"/>
	<rect id="XMLID_432_" x="217.574" y="29.041" fill="#FFFFFF" width="5.414" height="5.943"/>
	<rect id="XMLID_431_" x="217.574" y="17.524" fill="#FFFFFF" width="5.414" height="5.944"/>
</g>
</svg>
