<?xml version="1.0" encoding="utf-8"?>
<!-- Generator: Adobe Illustrator 17.0.0, SVG Export Plug-In . SVG Version: 6.00 Build 0)  -->
<!DOCTYPE svg PUBLIC "-//W3C//DTD SVG 1.1//EN" "http://www.w3.org/Graphics/SVG/1.1/DTD/svg11.dtd">
<svg version="1.1" id="Layer_1" xmlns="http://www.w3.org/2000/svg" xmlns:xlink="http://www.w3.org/1999/xlink" x="0px" y="0px"
	 width="506.714px" height="67.148px" viewBox="0 0 506.714 67.148" enable-background="new 0 0 506.714 67.148"
	 xml:space="preserve">
<g id="XMLID_1_">
	<path id="XMLID_47_" fill="#448AFF" d="M82.056,0L53.507,0.039L40.581,16.013l41.466,51.133L82.056,0z"/>
	<path id="XMLID_43_" opacity="0.1" d="M43.942,11.858l-3.327,4.112L82.04,67.146L43.942,11.858z"/>
	<path id="XMLID_8_" fill="#FF207B" d="M27.715,0.039L0,0v67.148h82.016L27.715,0.039z"/>
	<rect id="XMLID_7_" x="58.55" y="6.034" fill="#FFFFFF" width="5.414" height="5.943"/>
	<rect id="XMLID_6_" x="58.55" y="17.552" fill="#FFFFFF" width="5.414" height="5.944"/>
	<rect id="XMLID_5_" x="70.948" y="6.034" fill="#FFFFFF" width="5.414" height="5.943"/>
	<rect id="XMLID_4_" x="70.948" y="29.069" fill="#FFFFFF" width="5.414" height="5.943"/>
	<rect id="XMLID_2_" x="70.948" y="17.552" fill="#FFFFFF" width="5.414" height="5.944"/>
</g>
<polygon id="XMLID_92_" fill="#448AFF" points="144.686,11.371 144.686,56.012 115.084,34.24 115.084,56.012 104.372,56.012 
	104.372,11.371 133.971,34.173 133.971,11.371 "/>
<path id="XMLID_86_" fill="#448AFF" d="M175.442,11.494c-12.195,0-22.081,9.886-22.081,22.079c0,12.193,9.886,22.081,22.081,22.081
	c12.193,0,22.079-9.887,22.079-22.081C197.521,21.38,187.635,11.494,175.442,11.494z M184.537,42.668
	c-2.439,2.374-5.67,3.757-9.096,3.757c-3.428,0-6.658-1.384-9.095-3.757c-2.44-2.439-3.757-5.667-3.757-9.095
	c0-3.427,1.317-6.657,3.757-9.096c2.437-2.438,5.668-3.757,9.095-3.757c3.426,0,6.656,1.319,9.096,3.757
	c2.438,2.439,3.755,5.669,3.755,9.096C188.293,37.001,186.976,40.229,184.537,42.668z"/>
<polygon id="XMLID_83_" fill="#448AFF" points="253.987,11.371 253.987,56.012 243.275,56.012 243.275,31.013 230.02,39.46 
	217.177,31.081 217.177,56.012 206.462,56.012 206.462,11.371 230.158,26.687 "/>
<path id="XMLID_77_" fill="#448AFF" d="M287.973,11.371l-24.036,44.642h12.361l3.228-6.251h16.829l3.225,6.251h12.365
	L287.973,11.371z M283.853,41.382l4.12-7.83l4.052,7.83H283.853z"/>
<polygon id="XMLID_74_" fill="#448AFF" points="337.96,39.392 333.085,44.337 333.085,56.012 322.37,56.012 322.37,11.371 
	333.085,11.371 333.085,29.158 350.872,11.371 366.051,11.371 345.585,31.768 368.797,56.012 353.62,56.012 "/>
<polygon id="XMLID_71_" fill="#448AFF" points="410.809,46.397 410.809,56.012 389.312,56.012 389.245,56.012 378.598,56.012 
	378.598,11.371 389.312,11.371 389.312,46.397 "/>
<polygon id="XMLID_68_" fill="#448AFF" points="433.519,46.397 453.985,46.397 453.985,56.012 422.803,56.012 422.803,11.371 
	453.985,11.371 453.985,20.987 433.519,20.987 433.519,28.884 450.893,28.884 450.893,38.499 433.519,38.499 "/>
<path id="XMLID_62_" fill="#448AFF" d="M506.714,26.617c0-6.867-4.945-15.246-15.934-15.246c-6.386,0-9.34,0-10.644,0h-10.716
	v44.642h10.716V41.795c1.508,0,3.227,0,5.08,0l9.341,14.217h12.02l-9.615-15.247C504.035,38.292,506.714,31.63,506.714,26.617z
	 M494.214,31.561c-0.892,0.413-2.129,0.619-3.501,0.619h-10.576V20.987h10.644c2.267,0,3.846,0.549,4.876,1.783
	c1.1,1.167,1.443,2.747,1.443,3.846c0,1.03-0.342,2.611-1.305,3.777C495.384,30.876,494.831,31.218,494.214,31.561z"/>
</svg>
